<svg width="20" height="20" viewBox="0 0 20 20" fill="none" xmlns="http://www.w3.org/2000/svg">
<path d="M15.541 6.81642C15.541 5.27381 14.9282 3.79438 13.8375 2.70359C12.7467 1.6128 11.2672 1 9.72463 1C8.18202 1 6.70259 1.6128 5.6118 2.70359C4.52101 3.79438 3.90821 5.27381 3.90821 6.81642C3.90821 13.6022 1 15.541 1 15.541H18.4493C18.4493 15.541 15.541 13.6022 15.541 6.81642Z" stroke="black" stroke-width="1.4" stroke-linecap="round" stroke-linejoin="round"/>
<path d="M11.4015 18.0342C11.2311 18.328 10.9864 18.5719 10.6921 18.7414C10.3978 18.9109 10.0641 19.0001 9.72443 19.0001C9.38477 19.0001 9.05107 18.9109 8.75675 18.7414C8.46242 18.5719 8.21779 18.328 8.04736 18.0342" stroke="black" stroke-width="1.4" stroke-linecap="round" stroke-linejoin="round"/>
</svg>
