<svg width="20" height="20" viewBox="0 0 20 20" fill="none" xmlns="http://www.w3.org/2000/svg">
  <path fill-rule="evenodd" clip-rule="evenodd" d="M18 10C18 14.4183 14.4183 18 10 18C5.58172 18 2 14.4183 2 10C2 5.58172 5.58172 2 10 2C14.4183 2 18 5.58172 18 10ZM20 10C20 15.5228 15.5228 20 10 20C4.47715 20 0 15.5228 0 10C0 4.47715 4.47715 0 10 0C15.5228 0 20 4.47715 20 10ZM11 5.57594C11 5.02365 10.5523 4.57594 10 4.57594C9.44771 4.57594 9 5.02365 9 5.57594V10.6668L9.36749 11.4414L13.0039 14.4109C13.4316 14.7602 14.0616 14.6966 14.4109 14.2689C14.7602 13.8411 14.6966 13.2111 14.2689 12.8618L11 10.1924V5.57594Z" fill="black"/>
</svg>
